<svg width="101" height="17" viewBox="0 0 101 17" fill="none" xmlns="http://www.w3.org/2000/svg">
<g opacity="0.6">
<path d="M19.0315 1.00841C18.231 1.57307 17.3446 2.00495 16.4066 2.28741C15.9032 1.70852 15.2341 1.29822 14.4898 1.112C13.7456 0.925781 12.9621 0.972624 12.2453 1.24619C11.5286 1.51977 10.9131 2.00686 10.4822 2.64161C10.0513 3.27636 9.82578 4.02813 9.83606 4.79525V5.6312C8.36699 5.6693 6.91131 5.34348 5.59865 4.68277C4.28598 4.02207 3.1571 3.04698 2.31252 1.84435C2.31252 1.84435 -1.03127 9.36789 6.49227 12.7117C4.77065 13.8803 2.71976 14.4663 0.640625 14.3836C8.16416 18.5633 17.3596 14.3836 17.3596 4.77018C17.3588 4.53733 17.3364 4.30505 17.2927 4.07634C18.1459 3.23495 18.748 2.17264 19.0315 1.00841V1.00841Z" stroke="white" stroke-linecap="round" stroke-linejoin="round"/>
<path d="M53.5312 5.5C54.7247 5.5 55.8693 5.97411 56.7132 6.81802C57.5571 7.66193 58.0312 8.80653 58.0312 10V15.25H55.0312V10C55.0312 9.60218 54.8732 9.22064 54.5919 8.93934C54.3106 8.65804 53.9291 8.5 53.5312 8.5C53.1334 8.5 52.7519 8.65804 52.4706 8.93934C52.1893 9.22064 52.0312 9.60218 52.0312 10V15.25H49.0312V10C49.0312 8.80653 49.5054 7.66193 50.3493 6.81802C51.1932 5.97411 52.3378 5.5 53.5312 5.5V5.5Z" stroke="white" stroke-linecap="round" stroke-linejoin="round"/>
<path d="M46.0312 6.25H43.0312V15.25H46.0312V6.25Z" stroke="white" stroke-linecap="round" stroke-linejoin="round"/>
<path d="M44.5312 4C45.3597 4 46.0312 3.32843 46.0312 2.5C46.0312 1.67157 45.3597 1 44.5312 1C43.7028 1 43.0312 1.67157 43.0312 2.5C43.0312 3.32843 43.7028 4 44.5312 4Z" stroke="white" stroke-linecap="round" stroke-linejoin="round"/>
<path d="M99.6544 2.9799C99.5573 2.59162 99.3593 2.23586 99.0806 1.94856C98.802 1.66125 98.4524 1.45258 98.0672 1.34362C96.66 1 91.0312 1 91.0312 1C91.0312 1 85.4025 1 83.9953 1.37634C83.6101 1.48531 83.2605 1.69398 82.9819 1.98128C82.7032 2.26858 82.5052 2.62434 82.4081 3.01262C82.1505 4.44073 82.0245 5.88945 82.0317 7.34058C82.0225 8.80263 82.1485 10.2624 82.4081 11.7013C82.5152 12.0775 82.7176 12.4197 82.9956 12.6949C83.2736 12.97 83.6179 13.1689 83.9953 13.2721C85.4025 13.6484 91.0312 13.6484 91.0312 13.6484C91.0312 13.6484 96.66 13.6484 98.0672 13.2721C98.4524 13.1631 98.802 12.9545 99.0806 12.6672C99.3593 12.3799 99.5573 12.0241 99.6544 11.6358C99.91 10.2185 100.036 8.78078 100.031 7.34058C100.04 5.87853 99.914 4.41876 99.6544 2.9799V2.9799Z" stroke="white" stroke-linecap="round" stroke-linejoin="round"/>
<path d="M89.1904 10.0157L93.8947 7.34035L89.1904 4.66504V10.0157Z" stroke="white" stroke-linecap="round" stroke-linejoin="round"/>
</g>
</svg>
